<?xml version="1.0" encoding="UTF-8" standalone="no"?>
<svg
   id="Layer_1"
   data-name="Layer 1"
   viewBox="0 0 55.752877 55.114672"
   version="1.1"
   width="55.752876"
   height="55.114674"
   xmlns="http://www.w3.org/2000/svg"
   xmlns:svg="http://www.w3.org/2000/svg">
  <defs
     id="defs1">
    <style
       id="style1">.cls-1{fill:#1d1d1b;}.cls-2{fill:#a7c947;}.cls-3{fill:#232321;}</style>
  </defs>
  <path
     class="cls-2"
     d="m 54.79666,48.957253 a 10.43,10.43 0 0 0 0.47,-7.51 v 0 a 0.75,0.75 0 0 0 -0.08,-0.24 v -0.08 a 0.21,0.21 0 0 0 -0.05,-0.14 v -0.03 c -0.62,-2 -2.09,-3.78 -3.79,-5.86 -2.09,-2.55 -4.45,-5.44 -5.68,-9.32 -1.23,-3.88 -0.91,-7.3 -0.66,-10.4 0.22,-2.65 0.42,-5.16 -0.3,-7.4700003 v 0 -0.05 a 0.43,0.43 0 0 1 0,-0.16 v -0.08 l -0.07,-0.25 a 1.56,1.56 0 0 0 -0.17,-0.5 v -0.07 c -0.06,-0.15 -0.11,-0.29 -0.17,-0.43 v 0 a 10.49,10.49 0 0 0 -11.91,-6.12000005 v 0 l -0.46,0.11 h -0.06 l -0.52,0.14 a 10.42,10.42 0 0 0 -6.13,5.16000005 c -0.16,0.31 -0.31,0.62 -0.44,0.94 a 10.34,10.34 0 0 0 -0.75,4.0000003 10.63,10.63 0 0 0 0.53,3.06 v 0 a 1.09,1.09 0 0 0 0.07,0.24 v 0.3 c 0.62,2 2.09,3.77 3.79,5.85 2.09,2.55 4.45,5.44 5.68,9.33 1.23,3.89 1,7.65 0.72,11 -0.2,2.67 -0.37,5 0.25,6.91 v 0 0.06 a 0.38,0.38 0 0 0 0,0.15 v 0.09 a 1.13,1.13 0 0 0 0.08,0.24 1.69,1.69 0 0 0 0.13,0.42 10.59,10.59 0 0 0 19.28,1.22 4.16,4.16 0 0 0 0.24,-0.51 z"
     id="path11" />
  <path
     class="cls-2"
     d="m 16.37666,27.067253 a 11.18,11.18 0 1 0 5.47,6.55 11.18,11.18 0 0 0 -5.47,-6.55 z"
     id="path13" />
</svg>
