<?xml version="1.0" encoding="UTF-8" standalone="no" ?>
<!DOCTYPE svg PUBLIC "-//W3C//DTD SVG 1.1//EN" "http://www.w3.org/Graphics/SVG/1.1/DTD/svg11.dtd">
<svg xmlns="http://www.w3.org/2000/svg" xmlns:xlink="http://www.w3.org/1999/xlink" version="1.1" width="1080" height="1080" viewBox="0 0 1080 1080" xml:space="preserve">
<defs>
</defs>
<g transform="matrix(1 0 0 1 540 540)" id="f875411f-52d4-4e3b-ac49-ef82c0f192d3"  >
<rect style="stroke: none; stroke-width: 1; stroke-dasharray: none; stroke-linecap: butt; stroke-dashoffset: 0; stroke-linejoin: miter; stroke-miterlimit: 4; fill: rgb(255,255,255); fill-rule: nonzero; opacity: 1; visibility: hidden;" vector-effect="non-scaling-stroke"  x="-540" y="-540" rx="0" ry="0" width="1080" height="1080" />
</g>
<g transform="matrix(1 0 0 1 540 540)" id="0ebb37f5-75fb-4894-b825-8a94605c06b2"  >
</g>
<g transform="matrix(12.26 0 0 12.26 540 540)"  >
<g style=""   >
		<g transform="matrix(1 0 0 1 -4.16 -14.08)" id="path11"  >
<path style="stroke: none; stroke-width: 1; stroke-dasharray: none; stroke-linecap: butt; stroke-dashoffset: 0; stroke-linejoin: miter; stroke-miterlimit: 4; fill: rgb(167,201,71); fill-rule: nonzero; opacity: 1;" vector-effect="non-scaling-stroke"  transform=" translate(-42.53, -33.4)" d="M 57.434 54.796 C 58.52 52.439 58.688 49.761 57.904 47.286 C 57.891 47.202 57.864 47.121 57.824 47.046 L 57.824 46.966 C 57.825 46.915 57.808 46.865 57.774 46.826 L 57.774 46.796 C 57.154 44.796 55.684 43.016 53.984 40.936 C 51.894 38.386 49.534 35.496 48.304 31.616 C 47.074 27.736 47.394 24.316 47.644 21.216 C 47.864 18.566 48.064 16.056 47.344 13.746 L 47.344 13.696 C 47.334 13.644 47.334 13.589 47.344 13.536 L 47.344 13.456 L 47.274 13.206 C 47.247 13.031 47.189 12.862 47.104 12.706 L 47.104 12.636 C 47.044 12.486 46.994 12.346 46.934 12.206 C 44.952 7.568 39.949 4.998 35.024 6.086 L 34.564 6.196 L 34.504 6.196 L 33.984 6.336 C 31.335 7.171 29.128 9.028 27.854 11.496 C 27.694 11.806 27.544 12.116 27.414 12.436 C 26.902 13.707 26.647 15.067 26.664 16.436 C 26.69 17.477 26.869 18.508 27.194 19.496 C 27.208 19.579 27.232 19.659 27.264 19.736 L 27.264 20.036 C 27.884 22.036 29.354 23.806 31.054 25.886 C 33.144 28.436 35.504 31.326 36.734 35.216 C 37.964 39.106 37.734 42.866 37.454 46.216 C 37.254 48.886 37.084 51.216 37.704 53.126 L 37.704 53.186 C 37.694 53.236 37.694 53.287 37.704 53.336 L 37.704 53.426 C 37.722 53.509 37.749 53.59 37.784 53.666 C 37.809 53.811 37.853 53.953 37.914 54.086 C 40.78 61.718 50.833 63.386 56.009 57.088 C 56.464 56.536 56.861 55.939 57.194 55.306 C 57.286 55.142 57.366 54.972 57.434 54.796 Z" stroke-linecap="round" />
</g>
		<g transform="matrix(1 0 0 1 27.13 8.46)" id="path12"  >
<path style="stroke: none; stroke-width: 1; stroke-dasharray: none; stroke-linecap: butt; stroke-dashoffset: 0; stroke-linejoin: miter; stroke-miterlimit: 4; fill: rgb(167,201,71); fill-rule: nonzero; opacity: 1;" vector-effect="non-scaling-stroke"  transform=" translate(-73.82, -55.94)" d="M 88.884 28.496 C 83.746 20.443 71.816 20.972 67.411 29.449 C 66.91 30.412 66.538 31.437 66.304 32.496 L 66.244 32.796 L 66.244 33.096 C 65.704 35.486 66.154 38.206 66.674 41.356 C 67.304 45.236 68.024 49.626 66.974 54.356 C 65.924 59.086 63.404 62.816 61.184 66.086 C 59.394 68.716 57.854 70.986 57.334 73.336 L 57.334 73.396 C 57.334 73.456 57.334 73.526 57.284 73.586 L 57.284 73.686 C 57.271 73.785 57.247 73.882 57.214 73.976 C 55.124 83.298 63.908 91.387 73.026 88.537 C 74.03 88.223 74.991 87.783 75.884 87.226 C 76.575 86.786 77.221 86.281 77.814 85.716 C 79.579 84.018 80.804 81.837 81.334 79.446 L 81.394 79.156 L 81.394 79.056 C 81.384 78.987 81.384 78.916 81.394 78.846 L 81.394 78.796 C 81.934 76.396 81.484 73.666 80.964 70.516 C 80.334 66.646 79.614 62.256 80.664 57.516 C 81.714 52.776 84.144 49.416 86.214 46.366 C 88.014 43.766 89.714 41.306 90.334 38.506 L 90.334 38.146 C 90.324 38.041 90.349 37.936 90.404 37.846 C 91.158 34.651 90.612 31.288 88.884 28.496 Z" stroke-linecap="round" />
</g>
		<g transform="matrix(1 0 0 1 -32.87 -4.67)" id="path13"  >
<path style="stroke: none; stroke-width: 1; stroke-dasharray: none; stroke-linecap: butt; stroke-dashoffset: 0; stroke-linejoin: miter; stroke-miterlimit: 4; fill: rgb(167,201,71); fill-rule: nonzero; opacity: 1;" vector-effect="non-scaling-stroke"  transform=" translate(-13.82, -42.8)" d="M 19.014 32.906 C 11.394 28.906 2.301 34.655 2.647 43.254 C 2.992 51.854 12.518 56.854 19.792 52.255 C 24.077 49.546 26.003 44.293 24.484 39.456 C 23.599 36.636 21.632 34.281 19.014 32.906 Z" stroke-linecap="round" />
</g>
</g>
</g>
</svg>