<svg width="16" height="16" viewBox="0 0 16 16" fill="none" xmlns="http://www.w3.org/2000/svg">
<path fill-rule="evenodd" clip-rule="evenodd" d="M8.64645 5.64645C8.84171 5.45118 9.15829 5.45118 9.35355 5.64645L11.3536 7.64645C11.5488 7.84171 11.5488 8.15829 11.3536 8.35355L9.35355 10.3536C9.15829 10.5488 8.84171 10.5488 8.64645 10.3536C8.45118 10.1583 8.45118 9.84171 8.64645 9.64645L10.2929 8L8.64645 6.35355C8.45118 6.15829 8.45118 5.84171 8.64645 5.64645Z" fill="#491F53"/>
<path fill-rule="evenodd" clip-rule="evenodd" d="M7.35355 5.64645C7.15829 5.45118 6.84171 5.45118 6.64645 5.64645L4.64645 7.64645C4.45118 7.84171 4.45118 8.15829 4.64645 8.35355L6.64645 10.3536C6.84171 10.5488 7.15829 10.5488 7.35355 10.3536C7.54882 10.1583 7.54882 9.84171 7.35355 9.64645L5.70711 8L7.35355 6.35355C7.54882 6.15829 7.54882 5.84171 7.35355 5.64645Z" fill="#491F53"/>
<path d="M3 0H13C14.1046 0 15 0.89543 15 2V14C15 15.1046 14.1046 16 13 16H3C1.89543 16 1 15.1046 1 14V13H2V14C2 14.5523 2.44772 15 3 15H13C13.5523 15 14 14.5523 14 14V2C14 1.44772 13.5523 1 13 1H3C2.44772 1 2 1.44772 2 2V3H1V2C1 0.89543 1.89543 0 3 0Z" fill="#491F53"/>
<path d="M1 5V4.5C1 4.22386 1.22386 4 1.5 4C1.77614 4 2 4.22386 2 4.5V5H2.5C2.77614 5 3 5.22386 3 5.5C3 5.77614 2.77614 6 2.5 6H0.5C0.223858 6 0 5.77614 0 5.5C0 5.22386 0.223858 5 0.5 5H1Z" fill="#491F53"/>
<path d="M1 8V7.5C1 7.22386 1.22386 7 1.5 7C1.77614 7 2 7.22386 2 7.5V8H2.5C2.77614 8 3 8.22386 3 8.5C3 8.77614 2.77614 9 2.5 9H0.5C0.223858 9 0 8.77614 0 8.5C0 8.22386 0.223858 8 0.5 8H1Z" fill="#491F53"/>
<path d="M1 11V10.5C1 10.2239 1.22386 10 1.5 10C1.77614 10 2 10.2239 2 10.5V11H2.5C2.77614 11 3 11.2239 3 11.5C3 11.7761 2.77614 12 2.5 12H0.5C0.223858 12 0 11.7761 0 11.5C0 11.2239 0.223858 11 0.5 11H1Z" fill="#491F53"/>
</svg>
