<?xml version="1.0" encoding="UTF-8" standalone="no"?>
<svg
   id="Layer_1"
   data-name="Layer 1"
   viewBox="0 0 404.00001 86.3"
   version="1.1"
   sodipodi:docname="scilifelab_logo.svg"
   width="404"
   height="86.300003"
   inkscape:version="1.3 (0e150ed, 2023-07-21)"
   xmlns:inkscape="http://www.inkscape.org/namespaces/inkscape"
   xmlns:sodipodi="http://sodipodi.sourceforge.net/DTD/sodipodi-0.dtd"
   xmlns="http://www.w3.org/2000/svg"
   xmlns:svg="http://www.w3.org/2000/svg">
  <sodipodi:namedview
     id="namedview18"
     pagecolor="#ffffff"
     bordercolor="#000000"
     borderopacity="0.25"
     inkscape:showpageshadow="2"
     inkscape:pageopacity="0.0"
     inkscape:pagecheckerboard="0"
     inkscape:deskcolor="#d1d1d1"
     inkscape:zoom="1.3789256"
     inkscape:cx="313.64999"
     inkscape:cy="41.336531"
     inkscape:window-width="1392"
     inkscape:window-height="1027"
     inkscape:window-x="0"
     inkscape:window-y="25"
     inkscape:window-maximized="0"
     inkscape:current-layer="Layer_1" />
  <defs
     id="defs1">
    <style
       id="style1">.cls-1{fill:#1d1d1b;}.cls-2{fill:#a7c947;}.cls-3{fill:#232321;}</style>
  </defs>
  <path
     class="cls-1"
     d="m 253.03,72.76 v -29.1 h -5.86 v -4.42 h 5.9 v -1 a 12.22,12.22 0 0 1 0.85,-4.78 9.18,9.18 0 0 1 2.43,-3.51 10.26,10.26 0 0 1 3.87,-2.19 16.52,16.52 0 0 1 5.14,-0.73 18.12,18.12 0 0 1 4.39,0.53 l -0.35,4.64 c -0.48,-0.08 -1,-0.15 -1.64,-0.2 -0.64,-0.05 -1.21,-0.08 -1.81,-0.08 a 6.63,6.63 0 0 0 -4.8,1.63 6.07,6.07 0 0 0 -1.69,4.65 v 1 h 6.3 v 4.46 h -6.3 v 29.1 z"
     id="path1" />
  <path
     class="cls-1"
     d="m 143.09,61.61 a 7,7 0 0 0 -0.54,-2.79 5.7,5.7 0 0 0 -1.89,-2.21 16.07,16.07 0 0 0 -3.68,-1.85 58.43,58.43 0 0 0 -5.87,-1.81 53.14,53.14 0 0 1 -6.75,-2.19 22.81,22.81 0 0 1 -5.19,-2.77 11.59,11.59 0 0 1 -3.26,-3.64 9.39,9.39 0 0 1 -1.14,-4.67 9.88,9.88 0 0 1 1.23,-4.87 11.91,11.91 0 0 1 3.47,-3.9 17.14,17.14 0 0 1 5.38,-2.58 24.67,24.67 0 0 1 7,-0.93 23,23 0 0 1 7.59,1.1 17.84,17.84 0 0 1 5.58,3 13,13 0 0 1 3.42,4.4 12,12 0 0 1 1.17,5.11 h -6.66 a 9.32,9.32 0 0 0 -0.68,-3.5 7.44,7.44 0 0 0 -2.05,-2.78 9.73,9.73 0 0 0 -3.45,-1.83 19,19 0 0 0 -9.53,-0.09 9.43,9.43 0 0 0 -3.25,1.53 6.24,6.24 0 0 0 -1.9,2.3 6.8,6.8 0 0 0 -0.62,2.91 5,5 0 0 0 0.67,2.6 6.77,6.77 0 0 0 2.09,2.17 16.78,16.78 0 0 0 3.64,1.83 49.26,49.26 0 0 0 5.34,1.66 50.58,50.58 0 0 1 7.39,2.4 21,21 0 0 1 5.13,3 11.39,11.39 0 0 1 3,3.75 10.89,10.89 0 0 1 1,4.7 10.13,10.13 0 0 1 -1.24,5 11.53,11.53 0 0 1 -3.54,3.81 17.76,17.76 0 0 1 -5.51,2.34 28.71,28.71 0 0 1 -7.2,0.85 27.56,27.56 0 0 1 -4.63,-0.39 25,25 0 0 1 -4.44,-1.16 21,21 0 0 1 -3.93,-1.92 14.4,14.4 0 0 1 -3.16,-2.66 11.58,11.58 0 0 1 -2.11,-3.41 10.91,10.91 0 0 1 -0.76,-4.15 h 6.67 a 7.29,7.29 0 0 0 1,4 8.28,8.28 0 0 0 2.72,2.74 12.67,12.67 0 0 0 3.94,1.6 20.4,20.4 0 0 0 4.68,0.51 c 3.5,0 6.16,-0.64 8,-1.92 a 6,6 0 0 0 2.87,-5.29 z"
     id="path2" />
  <path
     class="cls-1"
     d="m 169.4,68.99 a 10.59,10.59 0 0 0 3.25,-0.49 10.16,10.16 0 0 0 2.74,-1.36 7.61,7.61 0 0 0 1.94,-2.06 6.1,6.1 0 0 0 0.88,-2.59 h 6 a 9.34,9.34 0 0 1 -1.36,4.26 13.23,13.23 0 0 1 -3.23,3.56 16.42,16.42 0 0 1 -4.65,2.44 17.05,17.05 0 0 1 -5.61,0.92 18.23,18.23 0 0 1 -7.34,-1.35 14.54,14.54 0 0 1 -8.28,-9 19.93,19.93 0 0 1 -1,-6.41 v -1.3 a 19.93,19.93 0 0 1 1,-6.41 14.56,14.56 0 0 1 8.27,-9 18.33,18.33 0 0 1 7.32,-1.34 18,18 0 0 1 6,0.92 14.61,14.61 0 0 1 4.63,2.56 12,12 0 0 1 3.06,3.85 12.5,12.5 0 0 1 1.24,4.8 h -6 a 8.26,8.26 0 0 0 -0.81,-2.89 8,8 0 0 0 -1.87,-2.33 8.71,8.71 0 0 0 -2.71,-1.59 9.76,9.76 0 0 0 -3.5,-0.59 10.31,10.31 0 0 0 -4.89,1.06 8.81,8.81 0 0 0 -3.14,2.77 10.79,10.79 0 0 0 -1.68,3.87 19.66,19.66 0 0 0 -0.48,4.32 v 1.3 a 19,19 0 0 0 0.48,4.38 11,11 0 0 0 1.66,3.86 8.73,8.73 0 0 0 3.16,2.75 10.56,10.56 0 0 0 4.92,1.09 z"
     id="path3" />
  <path
     class="cls-1"
     d="m 208.17,68.14 h 23.82 v 4.85 H 201.48 V 27.31 h 6.69 z"
     id="path4" />
  <path
     class="cls-1"
     d="m 283.3,73.35 a 19.72,19.72 0 0 1 -7.06,-1.21 15.55,15.55 0 0 1 -5.4,-3.36 14.51,14.51 0 0 1 -3.46,-5.12 17,17 0 0 1 -1.21,-6.5 v -1.3 a 18.34,18.34 0 0 1 1.37,-7.31 16.14,16.14 0 0 1 3.64,-5.41 15.7,15.7 0 0 1 5.22,-3.38 16.37,16.37 0 0 1 6.08,-1.14 17.16,17.16 0 0 1 6.9,1.25 13.09,13.09 0 0 1 4.78,3.45 14.16,14.16 0 0 1 2.78,5.2 22.88,22.88 0 0 1 0.9,6.53 v 2.57 h -25.28 a 12.93,12.93 0 0 0 0.85,4.34 10.3,10.3 0 0 0 5.66,5.85 11.41,11.41 0 0 0 4.58,0.86 12.24,12.24 0 0 0 5.73,-1.23 14.2,14.2 0 0 0 4.1,-3.29 l 3.9,2.73 a 17.12,17.12 0 0 1 -2.18,2.4 15,15 0 0 1 -3,2.07 16.84,16.84 0 0 1 -3.92,1.46 20.94,20.94 0 0 1 -4.98,0.54 z m -0.79,-30 a 9.39,9.39 0 0 0 -3.56,0.64 8.73,8.73 0 0 0 -2.9,1.84 9.41,9.41 0 0 0 -2.12,3 13.85,13.85 0 0 0 -1.16,4.16 h 18.71 v -0.44 a 15.55,15.55 0 0 0 -0.6,-3.31 8.83,8.83 0 0 0 -1.55,-2.94 7.93,7.93 0 0 0 -2.71,-2.1 9.4,9.4 0 0 0 -4.14,-0.84 z"
     id="path5" />
  <path
     class="cls-1"
     d="m 309.02,67.87 h 23.82 v 4.89 H 302.35 V 27.04 h 6.67 z"
     id="path6" />
  <path
     class="cls-1"
     d="m 359.17,72.76 a 5.48,5.48 0 0 1 -0.55,-1.56 c -0.14,-0.63 -0.25,-1.29 -0.35,-2 a 16.81,16.81 0 0 1 -2,1.59 15.77,15.77 0 0 1 -2.45,1.34 14.75,14.75 0 0 1 -2.88,0.89 17.22,17.22 0 0 1 -8.48,-0.45 12.27,12.27 0 0 1 -4,-2.1 9.32,9.32 0 0 1 -2.54,-3.14 8.6,8.6 0 0 1 -0.89,-3.89 9.38,9.38 0 0 1 1.14,-4.75 9.68,9.68 0 0 1 3.37,-3.45 16.81,16.81 0 0 1 5.3,-2.11 31.69,31.69 0 0 1 6.94,-0.71 h 6.39 v -2.66 a 6.14,6.14 0 0 0 -2,-4.78 q -2,-1.78 -5.91,-1.78 a 11.68,11.68 0 0 0 -3.28,0.43 8.67,8.67 0 0 0 -2.53,1.16 5.51,5.51 0 0 0 -1.64,1.69 3.65,3.65 0 0 0 -0.59,2 h -6.42 a 6.91,6.91 0 0 1 1,-3.56 10.67,10.67 0 0 1 3,-3.17 15.81,15.81 0 0 1 4.68,-2.25 19.86,19.86 0 0 1 6.13,-0.88 21.29,21.29 0 0 1 5.61,0.69 12.57,12.57 0 0 1 4.41,2.11 10,10 0 0 1 2.85,3.51 11.27,11.27 0 0 1 1,4.92 v 15.57 a 19.54,19.54 0 0 0 0.33,3.58 11.43,11.43 0 0 0 1,3.23 v 0.53 z m -10.6,-4.37 a 11.94,11.94 0 0 0 3.25,-0.43 12.75,12.75 0 0 0 2.76,-1.2 10.11,10.11 0 0 0 2.16,-1.59 7.88,7.88 0 0 0 1.43,-1.86 v -6.83 h -5.32 q -5.49,0 -8.46,1.53 a 4.92,4.92 0 0 0 -3,4.63 5.47,5.47 0 0 0 0.45,2.26 4.66,4.66 0 0 0 1.4,1.86 7.12,7.12 0 0 0 2.28,1.16 9.51,9.51 0 0 0 3.05,0.44 z"
     id="path7" />
  <path
     class="cls-1"
     d="m 401.98,56.35 a 23,23 0 0 1 -1,6.8 15.88,15.88 0 0 1 -2.83,5.38 13,13 0 0 1 -4.56,3.55 14.32,14.32 0 0 1 -6.11,1.27 16,16 0 0 1 -6.39,-1.16 12.46,12.46 0 0 1 -4.56,-3.33 l -0.31,3.9 h -5.87 V 27.04 h 6.39 v 15.88 a 12.47,12.47 0 0 1 4.49,-3.16 15.71,15.71 0 0 1 6.18,-1.11 15,15 0 0 1 6.23,1.23 12.77,12.77 0 0 1 4.56,3.49 15.7,15.7 0 0 1 2.81,5.39 23.7,23.7 0 0 1 1,7 z m -6.39,-0.65 a 20.82,20.82 0 0 0 -0.52,-4.72 11.45,11.45 0 0 0 -1.67,-3.88 8.22,8.22 0 0 0 -3,-2.65 9.76,9.76 0 0 0 -4.56,-1 11.7,11.7 0 0 0 -3.18,0.4 9.54,9.54 0 0 0 -2.49,1.14 8.67,8.67 0 0 0 -2,1.67 10.5,10.5 0 0 0 -1.44,2.13 v 14.47 a 11.1,11.1 0 0 0 1.47,2.07 8.67,8.67 0 0 0 2,1.67 9.26,9.26 0 0 0 2.53,1.12 11.7,11.7 0 0 0 3.18,0.4 9.42,9.42 0 0 0 4.42,-1 8.54,8.54 0 0 0 3,-2.6 11.31,11.31 0 0 0 1.74,-3.93 19.71,19.71 0 0 0 0.55,-4.72 z"
     id="path8" />
  <path
     class="cls-1"
     d="m 195.57,72.99 h -6.4 v -33.5 h 6.38 z"
     id="path9" />
  <circle
     class="cls-1"
     cx="192.36"
     cy="31.07"
     r="3.76"
     id="circle9" />
  <circle
     class="cls-1"
     cx="239.77"
     cy="30.799999"
     r="3.76"
     id="circle10" />
  <path
     class="cls-1"
     d="m 242.98,72.76 h -6.39 V 39.24 h 6.39 z"
     id="path10" />
  <path
     class="cls-2"
     d="m 56.72,50.99 a 10.43,10.43 0 0 0 0.47,-7.51 v 0 a 0.75,0.75 0 0 0 -0.08,-0.24 v -0.08 a 0.21,0.21 0 0 0 -0.05,-0.14 v -0.03 c -0.62,-2 -2.09,-3.78 -3.79,-5.86 -2.09,-2.55 -4.45,-5.44 -5.68,-9.32 -1.23,-3.88 -0.91,-7.3 -0.66,-10.4 0.22,-2.65 0.42,-5.16 -0.3,-7.47 v 0 -0.05 a 0.43,0.43 0 0 1 0,-0.16 V 9.65 L 46.56,9.4 A 1.56,1.56 0 0 0 46.39,8.9 V 8.83 C 46.33,8.68 46.28,8.54 46.22,8.4 v 0 A 10.49,10.49 0 0 0 34.31,2.28 v 0 L 33.85,2.39 H 33.79 L 33.27,2.53 A 10.42,10.42 0 0 0 27.14,7.69 C 26.98,8 26.83,8.31 26.7,8.63 a 10.34,10.34 0 0 0 -0.75,4 10.63,10.63 0 0 0 0.53,3.06 v 0 a 1.09,1.09 0 0 0 0.07,0.24 v 0.3 c 0.62,2 2.09,3.77 3.79,5.85 2.09,2.55 4.45,5.44 5.68,9.33 1.23,3.89 1,7.65 0.72,11 -0.2,2.67 -0.37,5 0.25,6.91 v 0 0.06 a 0.38,0.38 0 0 0 0,0.15 v 0.09 a 1.13,1.13 0 0 0 0.08,0.24 1.69,1.69 0 0 0 0.13,0.42 10.59,10.59 0 0 0 19.28,1.22 4.16,4.16 0 0 0 0.24,-0.51 z"
     id="path11" />
  <path
     class="cls-2"
     d="m 88.17,24.69 a 12.41,12.41 0 0 0 -22.58,4 l -0.06,0.3 v 0.3 0 c -0.54,2.39 -0.09,5.11 0.43,8.26 0.63,3.88 1.35,8.27 0.3,13 -1.05,4.73 -3.57,8.46 -5.79,11.73 -1.79,2.63 -3.33,4.9 -3.85,7.25 v 0 0.06 c 0,0.06 0,0.13 -0.05,0.19 v 0.1 a 1.53,1.53 0 0 1 -0.07,0.29 12.41,12.41 0 0 0 18.67,13.25 12.71,12.71 0 0 0 1.93,-1.51 12.44,12.44 0 0 0 3.52,-6.27 v 0 l 0.06,-0.29 v -0.1 a 0.74,0.74 0 0 1 0,-0.21 v 0 -0.05 0 c 0.54,-2.4 0.09,-5.13 -0.43,-8.28 -0.63,-3.87 -1.35,-8.26 -0.3,-13 1.05,-4.74 3.48,-8.1 5.55,-11.15 1.8,-2.6 3.5,-5.06 4.12,-7.86 v -0.36 a 0.48,0.48 0 0 1 0.07,-0.3 12.37,12.37 0 0 0 -1.52,-9.35 z"
     id="path12" />
  <path
     class="cls-2"
     d="M 18.3,29.1 A 11.18,11.18 0 1 0 23.77,35.65 11.18,11.18 0 0 0 18.3,29.1 Z"
     id="path13" />
</svg>
