<?xml version="1.0" encoding="UTF-8" standalone="no"?>
<svg
   id="Layer_1"
   data-name="Layer 1"
   viewBox="0 0 300 87.3"
   version="1.1"
   sodipodi:docname="serve_logo.svg"
   width="300"
   height="87.300003"
   inkscape:version="1.3 (0e150ed, 2023-07-21)"
   xmlns:inkscape="http://www.inkscape.org/namespaces/inkscape"
   xmlns:sodipodi="http://sodipodi.sourceforge.net/DTD/sodipodi-0.dtd"
   xmlns="http://www.w3.org/2000/svg"
   xmlns:svg="http://www.w3.org/2000/svg">
  <sodipodi:namedview
     id="namedview18"
     pagecolor="#ffffff"
     bordercolor="#000000"
     borderopacity="0.25"
     inkscape:showpageshadow="2"
     inkscape:pageopacity="0.0"
     inkscape:pagecheckerboard="0"
     inkscape:deskcolor="#d1d1d1"
     inkscape:zoom="1.3789256"
     inkscape:cx="313.64999"
     inkscape:cy="41.336531"
     inkscape:window-width="1392"
     inkscape:window-height="1027"
     inkscape:window-x="0"
     inkscape:window-y="25"
     inkscape:window-maximized="0"
     inkscape:current-layer="Layer_1" />
  <defs
     id="defs1">
    <style
       id="style1">.cls-1{fill:#1d1d1b;}.cls-2{fill:#a7c947;}.cls-3{fill:#232321;}</style>
  </defs>
  <path
     class="cls-2"
     d="m 63.972023,51.165607 a 10.43,10.43 0 0 0 0.47,-7.51 v 0 a 0.75,0.75 0 0 0 -0.08,-0.24 v -0.08 a 0.21,0.21 0 0 0 -0.05,-0.14 v -0.03 c -0.62,-2 -2.09,-3.78 -3.79,-5.86 -2.09,-2.55 -4.45,-5.44 -5.68,-9.32 -1.23,-3.88 -0.91,-7.3 -0.66,-10.4 0.22,-2.65 0.42,-5.16 -0.3,-7.47 v 0 -0.05 a 0.43,0.43 0 0 1 0,-0.1600001 v -0.08 l -0.07,-0.25 a 1.56,1.56 0 0 0 -0.17,-0.5 v -0.07 c -0.06,-0.15 -0.11,-0.29 -0.17,-0.43 v 0 a 10.49,10.49 0 0 0 -11.91,-6.12 v 0 l -0.46,0.11 h -0.06 l -0.52,0.14 a 10.42,10.42 0 0 0 -6.13,5.16 c -0.16,0.31 -0.31,0.62 -0.44,0.94 a 10.34,10.34 0 0 0 -0.75,4.0000001 10.63,10.63 0 0 0 0.53,3.06 v 0 a 1.09,1.09 0 0 0 0.07,0.24 v 0.3 c 0.62,2 2.09,3.77 3.79,5.85 2.09,2.55 4.45,5.44 5.68,9.33 1.23,3.89 1,7.65 0.72,11 -0.2,2.67 -0.37,5 0.25,6.91 v 0 0.06 a 0.38,0.38 0 0 0 0,0.15 v 0.09 a 1.13,1.13 0 0 0 0.08,0.24 1.69,1.69 0 0 0 0.13,0.42 10.59,10.59 0 0 0 19.28,1.22 4.16,4.16 0 0 0 0.24,-0.51 z"
     id="path11" />
  <path
     class="cls-2"
     d="m 95.422023,24.865607 a 12.41,12.41 0 0 0 -22.58,4 l -0.06,0.3 v 0.3 0 c -0.54,2.39 -0.09,5.11 0.43,8.26 0.63,3.88 1.35,8.27 0.3,13 -1.05,4.73 -3.57,8.46 -5.79,11.73 -1.79,2.63 -3.33,4.9 -3.85,7.25 v 0 0.06 c 0,0.06 0,0.13 -0.05,0.19 v 0.1 a 1.53,1.53 0 0 1 -0.07,0.29 12.41,12.41 0 0 0 18.67,13.25 12.71,12.71 0 0 0 1.93,-1.51 12.44,12.44 0 0 0 3.52,-6.27 v 0 l 0.06,-0.29 v -0.1 a 0.74,0.74 0 0 1 0,-0.21 v 0 -0.05 0 c 0.54,-2.4 0.09,-5.13 -0.43,-8.28 -0.63,-3.87 -1.35,-8.26 -0.3,-13 1.05,-4.74 3.48,-8.1 5.55,-11.15 1.8,-2.6 3.5,-5.06 4.12,-7.86 v -0.36 a 0.48,0.48 0 0 1 0.07,-0.3 12.37,12.37 0 0 0 -1.52,-9.35 z"
     id="path12" />
  <path
     class="cls-2"
     d="m 25.552023,29.275607 a 11.18,11.18 0 1 0 5.47,6.55 11.18,11.18 0 0 0 -5.47,-6.55 z"
     id="path13" />
  <path
     class="cls-3"
     d="m 151.64012,31.730809 a 2.48,2.48 0 0 1 -0.69,0.79 1.44,1.44 0 0 1 -0.89,0.26 2.53,2.53 0 0 1 -1.4,-0.59 22.9,22.9 0 0 0 -2,-1.31 16.25,16.25 0 0 0 -2.91,-1.32 12.66,12.66 0 0 0 -4.11,-0.59 12,12 0 0 0 -4,0.61 8.61,8.61 0 0 0 -2.9,1.66 6.94,6.94 0 0 0 -1.77,2.47 7.8,7.8 0 0 0 -0.59,3.06 5.69,5.69 0 0 0 1,3.49 9,9 0 0 0 2.73,2.36 21.05,21.05 0 0 0 3.85,1.7 l 4.41,1.48 c 1.5,0.52 3,1.09 4.41,1.73 a 15.84,15.84 0 0 1 3.85,2.44 11.15,11.15 0 0 1 2.73,3.6 12,12 0 0 1 1,5.25 16.83,16.83 0 0 1 -1.12,6.18 14.26,14.26 0 0 1 -3.27,5 15.17,15.17 0 0 1 -5.29,3.36 19.36,19.36 0 0 1 -7.12,1.23 21.68,21.68 0 0 1 -8.89,-1.77 20.82,20.82 0 0 1 -6.82,-4.78 l 2,-3.22 a 2.64,2.64 0 0 1 0.68,-0.65 1.63,1.63 0 0 1 0.89,-0.26 2,2 0 0 1 1,0.37 c 0.39,0.25 0.83,0.55 1.32,0.93 0.49,0.38 1,0.78 1.68,1.22 a 13.63,13.63 0 0 0 2.15,1.23 14.29,14.29 0 0 0 2.75,0.92 14.63,14.63 0 0 0 3.46,0.37 13.05,13.05 0 0 0 4.31,-0.66 9.22,9.22 0 0 0 3.2,-1.88 8.14,8.14 0 0 0 2,-2.88 9.6,9.6 0 0 0 0.7,-3.75 6.24,6.24 0 0 0 -1,-3.72 8.65,8.65 0 0 0 -2.71,-2.44 18.91,18.91 0 0 0 -3.85,-1.66 l -4.41,-1.4 a 45.85,45.85 0 0 1 -4.41,-1.66 14.28,14.28 0 0 1 -3.85,-2.45 11.41,11.41 0 0 1 -2.72,-3.76 13.58,13.58 0 0 1 -1,-5.59 13.4,13.4 0 0 1 1,-5.14 13.22,13.22 0 0 1 3,-4.41 14.59,14.59 0 0 1 4.87,-3.08 17.71,17.71 0 0 1 6.63,-1.16 21.25,21.25 0 0 1 7.65,1.33 18.09,18.09 0 0 1 6.07,3.85 z"
     id="path14" />
  <path
     class="cls-3"
     d="m 191.05012,69.080809 a 12,12 0 0 1 -2.77,2.43 16.77,16.77 0 0 1 -3.45,1.7 23,23 0 0 1 -3.79,1 23.49,23.49 0 0 1 -3.89,0.33 18.16,18.16 0 0 1 -6.77,-1.24 15,15 0 0 1 -5.36,-3.64 16.78,16.78 0 0 1 -3.51,-5.94 24.08,24.08 0 0 1 -1.26,-8.12 20.9,20.9 0 0 1 1.13,-6.93 16.37,16.37 0 0 1 3.28,-5.58 15,15 0 0 1 5.21,-3.71 17.1,17.1 0 0 1 6.93,-1.35 16,16 0 0 1 5.9,1.07 13.34,13.34 0 0 1 4.69,3.08 14.14,14.14 0 0 1 3.1,5 19.09,19.09 0 0 1 1.12,6.74 4.06,4.06 0 0 1 -0.32,2 1.3,1.3 0 0 1 -1.19,0.49 h -23.69 a 21,21 0 0 0 0.92,5.84 11.78,11.78 0 0 0 2.3,4.15 9.22,9.22 0 0 0 3.5,2.49 12.17,12.17 0 0 0 4.55,0.82 13.4,13.4 0 0 0 4,-0.54 19.83,19.83 0 0 0 2.92,-1.18 22.58,22.58 0 0 0 2,-1.17 2.72,2.72 0 0 1 1.42,-0.54 1.39,1.39 0 0 1 1.19,0.59 z m -5,-16.63 a 12.24,12.24 0 0 0 -0.62,-4 8.89,8.89 0 0 0 -1.78,-3.12 7.88,7.88 0 0 0 -2.85,-2 10.79,10.79 0 0 0 -10.91,1.89 12.21,12.21 0 0 0 -3.23,7.22 z"
     id="path15" />
  <path
     class="cls-3"
     d="m 205.15012,45.700809 a 16.05,16.05 0 0 1 4.13,-5.69 9.07,9.07 0 0 1 6,-2.05 9,9 0 0 1 2.15,0.25 5.73,5.73 0 0 1 1.84,0.77 l -0.46,4.65 a 1,1 0 0 1 -1,0.88 7.25,7.25 0 0 1 -1.43,-0.21 10,10 0 0 0 -2.14,-0.21 8.41,8.41 0 0 0 -3,0.49 6.9,6.9 0 0 0 -2.35,1.45 10.6,10.6 0 0 0 -1.85,2.38 19.55,19.55 0 0 0 -1.49,3.24 v 22.4 h -6.26 v -35.46 h 3.57 a 2,2 0 0 1 1.4,0.39 2.36,2.36 0 0 1 0.52,1.33 z"
     id="path16" />
  <path
     class="cls-3"
     d="m 255.10012,38.590809 -14.46,35.46 h -5.59 l -14.46,-35.46 h 5.07 a 2,2 0 0 1 1.26,0.39 1.91,1.91 0 0 1 0.67,0.91 l 9,22.82 c 0.28,0.86 0.53,1.7 0.74,2.52 0.21,0.82 0.4,1.63 0.59,2.45 0.19,-0.82 0.39,-1.64 0.6,-2.45 0.21,-0.81 0.46,-1.66 0.77,-2.52 l 9.1,-22.82 a 2,2 0 0 1 0.7,-0.93 1.88,1.88 0 0 1 1.15,-0.37 z"
     id="path17" />
  <path
     class="cls-3"
     d="m 288.63012,69.080809 a 12,12 0 0 1 -2.77,2.43 16.77,16.77 0 0 1 -3.45,1.7 23,23 0 0 1 -3.79,1 23.49,23.49 0 0 1 -3.89,0.33 18.16,18.16 0 0 1 -6.77,-1.24 15,15 0 0 1 -5.36,-3.64 16.78,16.78 0 0 1 -3.51,-5.94 24.08,24.08 0 0 1 -1.26,-8.12 20.9,20.9 0 0 1 1.13,-6.93 16.37,16.37 0 0 1 3.28,-5.58 15,15 0 0 1 5.21,-3.71 17.07,17.07 0 0 1 6.93,-1.35 16,16 0 0 1 5.9,1.07 13.34,13.34 0 0 1 4.69,3.08 14.14,14.14 0 0 1 3.1,5 19.09,19.09 0 0 1 1.12,6.74 4.06,4.06 0 0 1 -0.32,2 1.3,1.3 0 0 1 -1.19,0.49 h -23.69 a 21,21 0 0 0 0.92,5.84 11.78,11.78 0 0 0 2.3,4.15 9.22,9.22 0 0 0 3.5,2.49 12.17,12.17 0 0 0 4.55,0.82 13.4,13.4 0 0 0 4,-0.54 20.29,20.29 0 0 0 2.92,-1.18 22.58,22.58 0 0 0 2.05,-1.17 2.72,2.72 0 0 1 1.42,-0.54 1.39,1.39 0 0 1 1.19,0.59 z m -5,-16.63 a 12.24,12.24 0 0 0 -0.62,-4 9,9 0 0 0 -1.78,-3.12 7.88,7.88 0 0 0 -2.85,-2 10.79,10.79 0 0 0 -10.91,1.89 12.21,12.21 0 0 0 -3.23,7.22 z"
     id="path18" />
</svg>
