<svg width="1973.7779999999998" height="253.14399999999998" xmlns="http://www.w3.org/2000/svg">
 <g>
  <title>Layer 1</title>
  <g stroke="null" id="svg_9">
   <g stroke="null" transform="matrix(1.4424 0 0 1.23291 -45.8041 -52.9528)" id="svg_1">
    <g stroke="null" id="svg_2">
     <g stroke="null" id="svg_3">
      <path stroke="null" class="st0" d="m142.5409,161.19261c1.3065,-3.36217 1.9497,-6.96111 1.9296,-10.58373c-0.0201,-2.41508 -0.3417,-4.83016 -0.9849,-7.19788l0,0c-0.0603,-0.18942 -0.1005,-0.37884 -0.1608,-0.56825l-0.0603,-0.2131c-0.0402,-0.11839 -0.0603,-0.23677 -0.1005,-0.35516c-0.0201,-0.04735 -0.0402,-0.09471 -0.0603,-0.16574c-1.2462,-4.68809 -4.20091,-8.95 -7.61792,-13.87486c-4.20091,-6.0377 -8.94452,-12.85674 -11.41682,-22.06719c-2.412,-8.95 -1.8291,-17.28439 -1.3266,-24.62433c0.4422,-6.27447 0.8442,-12.21746 -0.6231,-17.6869l0,-0.02368c0,-0.04735 -0.0201,-0.09471 -0.0201,-0.14206c-0.0201,-0.11839 -0.0603,-0.23677 -0.0804,-0.35516l-0.0603,-0.16574c-0.0402,-0.18942 -0.1005,-0.37884 -0.1407,-0.59193c-0.1005,-0.40251 -0.2211,-0.80503 -0.3417,-1.18386c-0.0201,-0.04735 -0.0402,-0.11839 -0.0603,-0.16574c-0.1005,-0.33148 -0.2211,-0.66296 -0.3417,-0.99444c0,-0.02368 0,-0.02368 -0.0201,-0.04735c-1.9095,-5.20899 -5.26621,-9.4709 -9.58772,-12.12275c-4.36171,-2.67553 -9.24602,-3.45688 -13.96953,-2.29669l0,0c-0.3015,0.07103 -0.6231,0.16574 -0.9246,0.26045c-0.0402,0.02368 -0.0804,0.02368 -0.1206,0.02368c-0.3417,0.09471 -0.6834,0.2131 -1.0251,0.35516c-5.36671,1.98889 -9.74852,6.32182 -12.32133,12.19378c-0.3216,0.73399 -0.6231,1.49167 -0.8643,2.24934c-1.0251,3.03069 -1.5477,6.22711 -1.5075,9.44722c0.0201,2.41508 0.3417,4.83016 0.9849,7.19788c0,0 0,0 0,0.02368c0.0603,0.18942 0.1005,0.37884 0.1608,0.56825l0.0603,0.18942c0.0201,0.04735 0.0201,0.07103 0.0402,0.11839c0.0201,0.04735 0.0402,0.11839 0.0603,0.16574s0.0201,0.07103 0.0402,0.11839l0.0402,0.11839c1.2261,4.66442 4.18081,8.92632 7.61792,13.85119c4.20091,6.0377 8.94452,12.88042 11.41682,22.09087c2.47231,9.23412 1.9296,18.11309 1.4271,25.95026c-0.402,6.32182 -0.7437,11.76759 0.5025,16.36097l0,0.02368c0.0201,0.04735 0.0201,0.09471 0.0402,0.14206c0.0201,0.11839 0.0603,0.23677 0.0804,0.35516l0.0402,0.18942c0.0402,0.18942 0.1005,0.37884 0.1407,0.59193c0.0804,0.33148 0.1809,0.66296 0.2814,0.97077c3.07531,9.9918 11.13542,16.3373 19.79854,16.3373c2.0904,0 4.22101,-0.37884 6.33151,-1.16018c5.36671,-1.98889 9.74852,-6.32182 12.32133,-12.19378c0.1407,-0.35516 0.2814,-0.73399 0.4221,-1.11283l0,-0.00005z" fill="#A7C947" id="svg_4"/>
      <path stroke="null" class="st0" d="m205.69523,98.89779c-3.57781,-6.62963 -9.14552,-11.19933 -15.63783,-12.9041c-13.42683,-3.50423 -26.77325,6.53492 -29.74806,22.35131c-0.0402,0.23677 -0.0804,0.47354 -0.1206,0.71032l-0.0402,0.23677c-0.0201,0.16574 -0.0603,0.33148 -0.0804,0.49722l0,0.02368c0,0.04735 0,0.07103 -0.0201,0.11839l0,0.02368c-1.0854,5.65886 -0.1809,12.09907 0.8442,19.5574c1.2663,9.18677 2.71351,19.58108 0.603,30.82777c-2.1105,11.27037 -7.17571,20.03095 -11.63792,27.7734c-3.59791,6.22711 -6.69331,11.60185 -7.71842,17.18968l0,0.02368c-0.0201,0.04735 -0.0201,0.09471 -0.0402,0.14206c-0.0402,0.14206 -0.0603,0.28413 -0.1005,0.42619l-0.0603,0.23677c-0.0402,0.23677 -0.1005,0.47354 -0.1407,0.71032c-1.4472,7.67143 -0.2613,15.53227 3.31651,22.13822c3.57781,6.62963 9.14552,11.19933 15.63783,12.9041c1.809,0.47354 3.63811,0.71032 5.44711,0.71032c4.70341,0 9.30632,-1.5627 13.36653,-4.61706c1.407,-1.06548 2.69341,-2.24934 3.87931,-3.57526c3.53761,-3.97778 5.98981,-9.09206 7.07521,-14.84563l0,0c0.0402,-0.23677 0.0804,-0.47354 0.1206,-0.68664l0.0402,-0.23677c0.0201,-0.16574 0.0603,-0.33148 0.0804,-0.49722l0,-0.02368c0,-0.04735 0.0201,-0.09471 0.0201,-0.11839l0,0c1.0854,-5.68254 0.1809,-12.12275 -0.8442,-19.60476c-1.2663,-9.16309 -2.71351,-19.5574 -0.603,-30.78041c2.0502,-10.93889 6.85411,-19.13121 11.09522,-26.32909c3.61801,-6.15608 7.03501,-11.98068 8.28122,-18.61031c0,-0.02368 0,-0.02368 0.0201,-0.04735c0.0201,-0.04735 0.0201,-0.09471 0.0402,-0.14206c0.0402,-0.14206 0.0603,-0.28413 0.1005,-0.42619l0.0603,-0.23677c0.0402,-0.23677 0.1005,-0.47354 0.1407,-0.71032c1.3869,-7.74246 0.2211,-15.6033 -3.37681,-22.20925l0,-0.00002z" fill="#A7C947" id="svg_5"/>
      <path stroke="null" class="st0" d="m65.31654,109.33945c-5.32651,-3.26746 -11.39672,-3.88307 -17.10513,-1.75212s-10.39172,6.74801 -13.14543,13.02248c-2.77381,6.27447 -3.29641,13.425 -1.4874,20.14933c1.809,6.72434 5.72851,12.24113 11.05502,15.48492c3.23611,1.98889 6.77371,2.98333 10.33142,2.98333c2.2713,0 4.56271,-0.40251 6.77371,-1.23122c5.70841,-2.13095 10.39172,-6.74801 13.14543,-13.02248c2.77381,-6.27447 3.29641,-13.425 1.4874,-20.14933c-1.809,-6.72434 -5.72851,-12.24113 -11.05502,-15.48492l0,0.00001z" fill="#A7C947" id="svg_6"/>
     </g>
    </g>
   </g>
   <path stroke="null" id="svg_8" fill="rgb(4, 28, 57)" d="m436.08071,67.36126l-8.65,15.65527c-1.027,1.59457 -2.107,2.78832 -3.24,3.58222c-1.133,0.80067 -2.593,1.20053 -4.38,1.20053c-1.58,0 -3.277,-0.48408 -5.09,-1.45225c-1.82,-0.96139 -3.88,-2.03993 -6.18,-3.23368c-2.3,-1.20053 -4.927,-2.28197 -7.88,-3.24336c-2.947,-0.96139 -6.31,-1.44257 -10.09,-1.44257c-6.52,0 -11.373,1.34575 -14.56,4.03726c-3.193,2.69151 -4.79,6.32891 -4.79,10.91125c0,2.92387 0.96,5.35106 2.88,7.28062c1.92,1.92375 4.443,3.58222 7.57,4.97638c3.12,1.40094 6.687,2.68182 10.7,3.84363c4.02,1.1618 8.123,2.45624 12.31,3.88235c4.187,1.43289 8.287,3.11072 12.3,5.03447c4.013,1.92956 7.583,4.3887 10.71,7.37744c3.12,2.98873 5.64,6.62517 7.56,10.91125c1.927,4.28608 2.89,9.45222 2.89,15.50036c0,6.71231 -1.203,12.99281 -3.61,18.84054c-2.4,5.84773 -5.883,10.94707 -10.45,15.29705c-4.56,4.35675 -10.187,7.78116 -16.88,10.27226c-6.693,2.4911 -14.293,3.73713 -22.8,3.73713c-4.667,0 -9.42,-0.46472 -14.26,-1.39416c-4.84,-0.93622 -9.523,-2.24905 -14.05,-3.94044c-4.533,-1.6972 -8.79,-3.70808 -12.77,-6.03168c-3.98,-2.3236 -7.447,-4.91539 -10.4,-7.77439l10.3,-15.75209c0.753,-1.19375 1.817,-2.15611 3.19,-2.88514c1.373,-0.72903 2.847,-1.09403 4.42,-1.09403c2.06,0 4.137,0.62931 6.23,1.88793c2.093,1.26539 4.463,2.66246 7.11,4.19217c2.64,1.52293 5.677,2.91709 9.11,4.18248c3.433,1.26539 7.483,1.89761 12.15,1.89761c6.313,0 11.22,-1.34575 14.72,-4.03726c3.5,-2.69151 5.25,-6.96112 5.25,-12.80886c0,-3.38859 -0.96,-6.14786 -2.88,-8.27783c-1.927,-2.12319 -4.45,-3.88235 -7.57,-5.27651c-3.127,-1.40094 -6.68,-2.63051 -10.66,-3.68872c-3.98,-1.06498 -8.063,-2.24615 -12.25,-3.54349c-4.187,-1.29057 -8.27,-2.88514 -12.25,-4.78275c-3.98,-1.89083 -7.53,-4.38289 -10.65,-7.47425c-3.127,-3.09136 -5.65,-6.94467 -7.57,-11.55992c-1.92,-4.62106 -2.88,-10.32067 -2.88,-17.09784c0,-5.44788 1.13,-10.76312 3.39,-15.94572c2.267,-5.1826 5.597,-9.80076 9.99,-13.85448c4.393,-4.05372 9.78,-7.29321 16.16,-9.7204c6.387,-2.4272 13.697,-3.64031 21.93,-3.64031c4.6,0 9.08,0.35144 13.44,1.0553c4.353,0.69708 8.487,1.72624 12.4,3.08845c3.913,1.36221 7.57,2.98873 10.97,4.87956c3.393,1.89761 6.43,4.04016 9.11,6.42863l0,-0.00001zm104.797,41.66025l-8.44,10.87252c-0.96,1.12985 -1.887,2.02637 -2.78,2.69151c-0.894,0.66513 -2.164,0.99721 -3.81,0.99721c-1.58,0 -3.004,-0.3679 -4.27,-1.10371c-1.274,-0.72903 -2.697,-1.54229 -4.27,-2.43978c-1.58,-0.89749 -3.434,-1.71075 -5.56,-2.43978c-2.127,-0.72903 -4.77,-1.09403 -7.93,-1.09403c-3.914,0 -7.294,0.69708 -10.14,2.09124c-2.847,1.39416 -5.197,3.38859 -7.05,5.98328c-1.854,2.58791 -3.227,5.7606 -4.12,9.51709c-0.894,3.74971 -1.34,7.98448 -1.34,12.70236c0,9.90145 1.973,17.51125 5.92,22.82939c3.946,5.31234 9.386,7.96802 16.32,7.96802c3.706,0 6.64,-0.44826 8.8,-1.34575c2.16,-0.89749 3.996,-1.89083 5.51,-2.98196c1.506,-1.09693 2.896,-2.11061 4.17,-3.04005c1.266,-0.93622 2.863,-1.40384 4.79,-1.40384c2.533,0 4.453,0.89749 5.76,2.69151l9.27,11.06616c-3.3,3.6529 -6.767,6.62904 -10.4,8.9265c-3.64,2.29165 -7.364,4.08567 -11.17,5.38301c-3.814,1.29057 -7.64,2.18806 -11.48,2.69151c-3.847,0.49667 -7.587,0.74549 -11.22,0.74549c-6.52,0 -12.75,-1.19762 -18.69,-3.5919c-5.934,-2.39428 -11.15,-5.8671 -15.65,-10.41748c-4.494,-4.55039 -8.06,-10.1464 -10.7,-16.78803c-2.647,-6.64841 -3.97,-14.22529 -3.97,-22.73257c0,-7.4423 1.15,-14.39956 3.45,-20.87369c2.3,-6.47995 5.696,-12.09532 10.19,-16.84612c4.5,-4.7508 10.06,-8.49083 16.68,-11.22106c6.626,-2.72346 14.296,-4.08567 23.01,-4.08567c8.373,0 15.716,1.29734 22.03,3.89203c6.313,2.58791 12.01,6.37345 17.09,11.35661l0,-0.00002zm15.646,-13.65116l31.92,0l0,103.36157l-31.92,0l0,-103.36157zm35.62,-28.30922c0,2.45915 -0.513,4.77016 -1.54,6.93208c-1.027,2.15611 -2.433,4.04984 -4.22,5.68314c-1.787,1.62652 -3.863,2.92096 -6.23,3.88235c-2.367,0.96139 -4.89,1.44257 -7.57,1.44257c-2.607,0 -5.043,-0.48118 -7.31,-1.44257c-2.26,-0.96139 -4.267,-2.25583 -6.02,-3.88235c-1.747,-1.6333 -3.12,-3.52703 -4.12,-5.68314c-0.993,-2.16192 -1.49,-4.47293 -1.49,-6.93208c0,-2.52401 0.497,-4.88247 1.49,-7.0773c1,-2.18806 2.373,-4.11471 4.12,-5.77996c1.753,-1.65847 3.76,-2.95291 6.02,-3.88235c2.267,-0.92944 4.703,-1.39416 7.31,-1.39416c2.68,0 5.203,0.46472 7.57,1.39416c2.367,0.92944 4.443,2.22388 6.23,3.88235c1.787,1.66525 3.193,3.5919 4.22,5.77996c1.027,2.19484 1.54,4.55329 1.54,7.0773zm56.831,-13.55435l0,118.31007l55.59,0l0,26.91506l-90.39,0l0,-145.22513l34.8,0zm73.091,41.86356l31.92,0l0,103.36157l-31.92,0l0,-103.36157zm35.62,-28.30922c0,2.45915 -0.514,4.77016 -1.54,6.93208c-1.027,2.15611 -2.434,4.04984 -4.22,5.68314c-1.787,1.62652 -3.864,2.92096 -6.23,3.88235c-2.367,0.96139 -4.89,1.44257 -7.57,1.44257c-2.607,0 -5.044,-0.48118 -7.31,-1.44257c-2.26,-0.96139 -4.267,-2.25583 -6.02,-3.88235c-1.747,-1.6333 -3.12,-3.52703 -4.12,-5.68314c-0.994,-2.16192 -1.49,-4.47293 -1.49,-6.93208c0,-2.52401 0.496,-4.88247 1.49,-7.0773c1,-2.18806 2.373,-4.11471 4.12,-5.77996c1.753,-1.65847 3.76,-2.95291 6.02,-3.88235c2.266,-0.92944 4.703,-1.39416 7.31,-1.39416c2.68,0 5.203,0.46472 7.57,1.39416c2.366,0.92944 4.443,2.22388 6.23,3.88235c1.786,1.66525 3.193,3.5919 4.22,5.77996c1.026,2.19484 1.54,4.55329 1.54,7.0773zm58.681,131.67079l-31.91,0l0,-82.12965l-7,-1.39416c-2.4,-0.5354 -4.34,-1.36802 -5.82,-2.49787c-1.474,-1.12985 -2.21,-2.78832 -2.21,-4.97638l0,-12.16018l15.03,0l0,-5.88646c0,-5.9126 0.976,-11.25979 2.93,-16.04254c1.96,-4.78275 4.776,-8.87132 8.45,-12.26668c3.666,-3.38859 8.143,-6.01232 13.43,-7.8712c5.286,-1.85888 11.293,-2.78832 18.02,-2.78832c2.606,0 5.023,0.14813 7.25,0.44536c2.233,0.30304 4.55,0.78712 6.95,1.45225l-0.61,15.04532c-0.074,1.06498 -0.367,1.94602 -0.88,2.6431c-0.514,0.69708 -1.147,1.26152 -1.9,1.69429c-0.76,0.43277 -1.604,0.74839 -2.53,0.9488c-0.927,0.20041 -1.834,0.30013 -2.72,0.30013c-2.814,0 -5.32,0.26431 -7.52,0.7939c-2.194,0.52959 -4.03,1.47452 -5.51,2.83673c-1.474,1.36221 -2.587,3.15623 -3.34,5.38301c-0.76,2.22679 -1.14,5.03447 -1.14,8.42306l0,4.88925l25.12,0l0,21.12542l-24.09,0l0,82.03284l0,-0.00002zm83.594,-104.95904c7.074,0 13.544,1.06498 19.41,3.19495c5.867,2.12319 10.91,5.21165 15.13,9.26536c4.22,4.05372 7.517,9.02042 9.89,14.9001c2.367,5.87968 3.55,12.54067 3.55,19.98298c0,2.33038 -0.103,4.22411 -0.31,5.68314c-0.206,1.46484 -0.583,2.63051 -1.13,3.49508c-0.553,0.85876 -1.293,1.45516 -2.22,1.79111c-0.926,0.32918 -2.11,0.49377 -3.55,0.49377l-61.56,0c1.027,8.64283 3.737,14.90688 8.13,18.79213c4.394,3.88526 10.057,5.82837 16.99,5.82837c3.707,0 6.897,-0.43277 9.57,-1.29734c2.68,-0.85876 5.067,-1.82015 7.16,-2.88514c2.094,-1.06498 4.014,-2.03025 5.76,-2.89482c1.754,-0.86457 3.59,-1.29734 5.51,-1.29734c2.54,0 4.464,0.89749 5.77,2.69151l9.26,11.06616c-3.293,3.6529 -6.843,6.62904 -10.65,8.9265c-3.813,2.29165 -7.726,4.08567 -11.74,5.38301c-4.013,1.29057 -8.03,2.18806 -12.05,2.69151c-4.013,0.49667 -7.836,0.74549 -11.47,0.74549c-7.486,0 -14.506,-1.18116 -21.06,-3.54349c-6.553,-2.35555 -12.283,-5.86032 -17.19,-10.5143c-4.906,-4.65398 -8.783,-10.43394 -11.63,-17.33988c-2.853,-6.91272 -4.28,-14.95528 -4.28,-24.12674c0,-6.90594 1.22,-13.45075 3.66,-19.63444c2.434,-6.17691 5.934,-11.59187 10.5,-16.24585c4.567,-4.6472 10.09,-8.33592 16.57,-11.06616c6.487,-2.72346 13.814,-4.08567 21.98,-4.08567zm0.62,21.32873c-6.106,0 -10.876,1.67783 -14.31,5.03447c-3.433,3.35664 -5.696,8.1907 -6.79,14.50315l39.84,0c0,-2.45915 -0.326,-4.85052 -0.98,-7.17412c-0.653,-2.3236 -1.716,-4.39839 -3.19,-6.22532c-1.473,-1.82693 -3.413,-3.30436 -5.82,-4.43421c-2.4,-1.13566 -5.316,-1.70397 -8.75,-1.70397zm100.479,-61.59482l0,118.31007l55.59,0l0,26.91506l-90.39,0l0,-145.22513l34.8,0zm160.40099,145.22513l-14.62,0c-3.02,0 -5.304,-0.39985 -6.85,-1.20053c-1.547,-0.7939 -2.834,-2.45237 -3.86,-4.97638l-2.27,-5.68314c-2.674,2.19484 -5.247,4.12149 -7.72,5.77996c-2.467,1.65847 -5.024,3.072 -7.67,4.24057c-2.64,1.1618 -5.454,2.02347 -8.44,2.58501c-2.987,0.56831 -6.297,0.85199 -9.93,0.85199c-4.874,0 -9.3,-0.61672 -13.28,-1.8492c-3.98,-1.22667 -7.36,-3.03714 -10.14,-5.43142c-2.78,-2.38847 -4.927,-5.36074 -6.44,-8.91682c-1.507,-3.55608 -2.26,-7.66111 -2.26,-12.31509c0,-3.6529 0.96,-7.40648 2.88,-11.25979c1.92,-3.85331 5.25,-7.35807 9.99,-10.5143c4.733,-3.15623 11.113,-5.79932 19.14,-7.92929c8.033,-2.12319 18.156,-3.31791 30.37,-3.58222l0,-4.3858c0,-6.04814 -1.287,-10.41748 -3.86,-13.10899c-2.574,-2.69151 -6.227,-4.03726 -10.96,-4.03726c-3.774,0 -6.864,0.39985 -9.27,1.20053c-2.4,0.7939 -4.544,1.69139 -6.43,2.69151c-1.887,0.99431 -3.724,1.89083 -5.51,2.69151c-1.78,0.7939 -3.907,1.19085 -6.38,1.19085c-2.2,0 -4.07,-0.51313 -5.61,-1.53939c-1.547,-1.03303 -2.767,-2.31392 -3.66,-3.84363l-5.76,-9.66231c6.453,-5.51855 13.606,-9.62359 21.46,-12.31509c7.86,-2.69151 16.286,-4.03726 25.28,-4.03726c6.446,0 12.263,1.01367 17.45,3.04005c5.18,2.02637 9.573,4.85052 13.18,8.47147c3.6,3.62095 6.36,7.92252 8.28,12.90567c1.926,4.98897 2.89,10.43975 2.89,16.35235l0,64.58646l0,-0.00002zm-51.27,-18.84054c4.113,0 7.716,-0.69708 10.81,-2.09124c3.086,-1.39416 6.206,-3.6529 9.36,-6.77717l0,-14.34824c-6.38,0.26431 -11.63,0.7939 -15.75,1.58779c-4.114,0.80067 -7.374,1.79789 -9.78,2.99164c-2.4,1.19375 -4.064,2.55596 -4.99,4.08567c-0.927,1.5297 -1.39,3.19205 -1.39,4.98606c0,3.52413 0.996,5.99973 2.99,7.42585c1.986,1.42611 4.903,2.13965 8.75,2.13965l0,-0.00001zm95.119,18.84054l-21.21,0l0,-149.21398l31.92,0l0,56.82175c3.98,-3.78844 8.493,-6.82849 13.54,-9.12014c5.04,-2.29746 10.96,-3.44668 17.76,-3.44668c5.553,0 10.7,1.16471 15.44,3.49508c4.733,2.3236 8.816,5.72865 12.25,10.21417c3.433,4.48552 6.126,9.98471 8.08,16.49757c1.953,6.51286 2.93,13.92225 2.93,22.22913c0,7.77148 -1.114,14.9456 -3.34,21.52236c-2.234,6.57676 -5.357,12.29282 -9.37,17.14625c-4.014,4.85342 -8.817,8.64283 -14.41,11.36629c-5.594,2.72346 -11.79,4.08567 -18.59,4.08567c-3.154,0 -5.984,-0.30013 -8.49,-0.9004c-2.507,-0.60026 -4.807,-1.44547 -6.9,-2.5366c-2.094,-1.09693 -4.014,-2.41074 -5.76,-3.94044c-1.754,-1.5297 -3.454,-3.19205 -5.1,-4.98606l-1.13,5.1797c-0.48,2.12997 -1.357,3.5919 -2.63,4.3858c-1.267,0.80067 -2.93,1.20053 -4.99,1.20053zm30.89,-81.7327c-2.334,0 -4.444,0.2159 -6.33,0.64867c-1.894,0.43277 -3.647,1.04562 -5.26,1.83952c-1.607,0.80067 -3.097,1.81338 -4.47,3.04005c-1.374,1.23248 -2.747,2.646 -4.12,4.24057l0,43.85799c2.4,2.58791 5.006,4.39839 7.82,5.43142c2.813,1.02626 5.766,1.53939 8.86,1.53939c2.946,0 5.656,-0.56444 8.13,-1.69429c2.473,-1.12985 4.616,-2.94032 6.43,-5.43142c1.82,-2.4911 3.246,-5.72865 4.28,-9.71072c1.026,-3.98885 1.54,-8.83937 1.54,-14.55156c0,-5.45369 -0.41,-10.0399 -1.23,-13.75766c-0.827,-3.72454 -1.977,-6.73167 -3.45,-9.02332c-1.48,-2.29165 -3.25,-3.93366 -5.31,-4.92797c-2.054,-1.00012 -4.35,-1.50066 -6.89,-1.50066l0,-0.00001z"/>
  </g>
  <g stroke="null">
   <g stroke="#000" fill="#041c39" stroke-width="0.25mm" font-size="9pt" fill-rule="evenodd" stroke-linecap="round" id="svg_21">
    <path stroke="null" vector-effect="non-scaling-stroke" id="svg_16" d="m1444.29859,70.17017l-2.65298,4.46171a4.23151,3.71292 0 0 1 -0.68756,0.8516a2.91828,2.56063 0 0 1 -2.1865,0.79729a2.76795,2.42872 0 0 1 -0.95286,-0.16683q-0.85338,-0.27546 -1.91899,-1.00873a15.99528,14.03498 0 0 1 -0.83127,-0.61882a32.17847,28.23485 0 0 0 -1.83498,-1.33851q-1.82172,-1.23958 -4.30004,-2.63823q-3.31623,-1.87004 -8.0518,-3.48983a70.25541,61.64528 0 0 0 -1.62053,-0.5354q-4.76874,-1.5131 -11.36803,-1.78468a63.32892,55.56766 0 0 0 -2.94702,-0.0582a50.55259,44.35713 0 0 0 -7.47036,0.46169a36.69297,32.19607 0 0 0 -7.50794,1.67217a34.32739,30.12041 0 0 0 -6.56834,2.86907a28.20784,24.75084 0 0 0 -4.26467,2.95055q-4.36637,3.68576 -6.63246,8.53544q-2.26609,4.84968 -2.26609,10.18433a31.07085,27.26297 0 0 0 0.47312,4.89818q0.6124,2.93503 2.01185,5.30555a18.07787,15.86234 0 0 0 0.88654,1.33851a30.10694,26.41719 0 0 0 8.04738,7.25124a34.80493,30.53942 0 0 0 0.85117,0.50825a54.48785,47.81011 0 0 0 8.30605,3.92048a65.40488,57.3892 0 0 0 4.24035,1.46266q7.01935,2.18236 14.4256,4.31622q7.40624,2.13386 14.4256,4.70419a53.05745,46.55501 0 0 1 10.4218,5.04173a48.27766,42.361 0 0 1 2.1246,1.40835q5.52705,3.87975 8.89855,9.55387q3.3715,5.67413 3.3715,14.11257a50.95938,44.71407 0 0 1 -2.86522,15.05147a48.58275,42.62871 0 0 1 -0.50628,1.19496q-3.3715,7.614 -9.78288,13.23963a44.49937,39.04576 0 0 1 -12.04233,7.45687a53.16136,46.64618 0 0 1 -3.65448,1.41805a51.10088,44.83822 0 0 1 -11.95169,2.71194a67.49189,59.22044 0 0 1 -9.27218,0.53734q-15.06673,0 -26.04566,-4.549a45.61362,40.02346 0 0 1 -0.59471,-0.25218q-11.16464,-4.80119 -19.56575,-13.14264l3.09515,-4.26772q1.32649,-1.4549 3.09515,-1.4549q0.82464,0 2.03174,0.80117a10.88828,9.55387 0 0 1 0.5107,0.36276a351.33234,308.27489 0 0 1 1.25353,0.9486q0.56155,0.42677 1.18721,0.90398a715.81905,628.09203 0 0 1 1.31765,1.00873a62.79611,55.10015 0 0 0 2.1047,1.5422q1.09436,0.76819 2.34789,1.5907a109.8136,96.35542 0 0 0 0.85338,0.55286a39.43438,34.60151 0 0 0 3.79598,2.1455a50.58133,44.38235 0 0 0 3.38919,1.54026q4.09002,1.69739 9.39598,2.86131q5.22417,1.14646 11.83894,1.16392a68.25241,59.88775 0 0 0 0.21003,0q9.28544,0 16.58114,-2.47334q7.2957,-2.47334 12.32532,-6.74106q5.02961,-4.26772 7.6826,-10.13584a38.30686,33.61218 0 0 0 2.64856,-12.03885a43.55093,38.21356 0 0 0 0.00442,-0.52183a33.55581,29.44339 0 0 0 -0.47312,-5.09411q-0.58145,-2.89623 -1.87256,-5.25124a18.77649,16.47534 0 0 0 -1.02582,-1.63337q-3.3715,-4.70419 -8.89855,-7.85649a54.24687,47.59866 0 0 0 -8.30605,-3.85259a65.32087,57.31548 0 0 0 -4.24035,-1.43357q-7.01935,-2.13386 -14.4256,-4.17073q-7.40624,-2.03687 -14.4256,-4.5587a50.36909,44.19612 0 0 1 -10.96345,-5.37151a46.55764,40.85178 0 0 1 -1.58295,-1.07857a33.63761,29.51517 0 0 1 -8.88528,-9.77308a37.26557,32.6985 0 0 1 -0.01326,-0.02328a29.28672,25.6975 0 0 1 -2.42085,-6.15134q-0.70967,-2.87489 -0.88875,-6.21535a56.09291,49.21845 0 0 1 -0.0619,-2.32785q0,-6.88655 2.98461,-13.28813q2.98461,-6.40158 8.73274,-11.29976q5.74813,-4.89818 14.20451,-7.85649a46.55764,40.85178 0 0 1 10.87944,-2.46946a61.16231,53.66658 0 0 1 8.40996,-0.48885q12.15951,0 21.83184,3.39478a51.47672,45.168 0 0 1 15.61502,8.68869a60.08786,52.7238 0 0 1 2.01627,1.68963z"/>
    <path stroke="null" vector-effect="non-scaling-stroke" id="svg_17" d="m1557.9347,143.10939l-79.47895,0l0,1.84288q0,10.30654 2.58666,18.25614a54.16949,47.53076 0 0 0 0.28741,0.8516a51.207,44.93133 0 0 0 3.4732,7.5655a39.36806,34.54332 0 0 0 4.70683,6.25609q5.30597,5.57713 12.82275,8.38995q7.51679,2.81282 16.80223,2.81282a63.57432,55.78298 0 0 0 6.60151,-0.28516q4.25362,-0.38991 7.76882,-1.31523q6.07975,-1.6004 10.22504,-3.58876a84.74291,74.35727 0 0 0 2.64635,-1.32105q1.16731,-0.60912 2.15113,-1.17556a35.33773,31.00693 0 0 0 1.77971,-1.09215a21.86058,19.18146 0 0 1 1.0015,-0.6227q1.48346,-0.86712 2.3302,-0.96412a1.57631,1.38313 0 0 1 0.20561,-0.01358q1.43703,0 2.21082,0.96994l2.87407,3.1038a25.92186,22.74501 0 0 1 -3.30296,2.98352a35.58092,31.22031 0 0 1 -3.71639,2.44812a48.35725,42.43084 0 0 1 -7.10999,3.37344a55.99121,49.12922 0 0 1 -2.61761,0.94278a69.01735,60.55895 0 0 1 -9.03562,2.39768a78.8754,69.20884 0 0 1 -2.46064,0.46363q-6.13502,1.06693 -12.32532,1.06693a56.27419,49.37752 0 0 1 -12.68789,-1.21242a47.79791,41.94005 0 0 1 -7.87273,-2.23085q-9.28544,-3.44327 -15.9179,-10.03884a48.85026,42.86343 0 0 1 -7.6826,-10.46561a61.04956,53.56765 0 0 1 -2.54244,-5.68383a68.94219,60.49299 0 0 1 -2.80332,-10.93118a93.90455,82.3961 0 0 1 -0.78926,-10.94088a72.6431,63.74034 0 0 1 1.31765,-12.34729a61.54479,54.00218 0 0 1 2.05385,-6.80895q3.3715,-8.77792 9.7276,-15.13101q6.35611,-6.35308 15.58628,-9.94185a47.37786,41.57147 0 0 1 13.18533,-3.16393a60.44822,53.04 0 0 1 7.76219,-0.42483a47.21647,41.42986 0 0 1 12.11529,1.33075a42.16032,36.99338 0 0 1 5.07383,1.48206q7.90368,2.81282 13.70708,8.19596a40.87805,35.86825 0 0 1 7.02819,9.01653a50.22097,44.06615 0 0 1 2.03616,4.2231a52.51138,46.07586 0 0 1 2.6154,9.43166a71.14416,62.42511 0 0 1 0.64556,8.60916a12.90455,11.32304 0 0 1 -0.04422,0.968q-0.13265,1.35791 -0.6743,1.94181a2.24177,1.96703 0 0 1 -1.08993,0.6324q-0.38026,0.10669 -0.84453,0.13385a4.95666,4.34919 0 0 1 -0.33162,0.0097zm-79.03679,-5.91661l72.51487,0q0,-7.75949 -2.4319,-13.91859a36.98701,32.45407 0 0 0 -3.36487,-6.32981a30.82545,27.04765 0 0 0 -3.48867,-4.09701q-4.42164,-4.26772 -10.61193,-6.54707a33.5315,29.42205 0 0 0 -9.91995,-2.12804a40.74319,35.74992 0 0 0 -3.78713,-0.15131a46.86716,41.12336 0 0 0 -8.30826,0.61882a36.67086,32.17667 0 0 0 -6.94639,1.70903q-6.743,2.32785 -11.66207,6.69256a38.10126,33.43177 0 0 0 -6.96408,8.60916a44.40873,38.96623 0 0 0 -0.99487,1.86616q-3.03988,6.1106 -4.03475,13.6761z"/>
    <path stroke="null" vector-effect="non-scaling-stroke" id="svg_18" d="m1599.71918,195.19498l-10.50139,0l0,-96.50867l5.52705,0q1.75318,0 2.59108,0.59166a2.05385,1.80214 0 0 1 0.11717,0.08729q0.82906,0.67896 0.9396,2.32785l0.88433,20.36866a63.84183,56.01771 0 0 1 5.26617,-9.22022q3.86672,-5.38509 8.86317,-9.14456a40.22143,35.29211 0 0 1 0.0199,-0.01552a31.32731,27.488 0 0 1 17.83468,-6.48112a41.14114,36.09909 0 0 1 3.94189,-0.16295a41.47055,36.38813 0 0 1 5.35239,0.29292a33.67299,29.5462 0 0 1 3.82251,0.62852q4.20056,0.92144 7.95895,2.66733l-1.43703,6.40158a2.5955,2.27741 0 0 1 -0.2852,0.71581q-0.54607,0.83609 -1.92562,0.83609a2.7989,2.45588 0 0 1 -0.41784,-0.03104q-0.4488,-0.0582 -1.06783,-0.23666a12.91782,11.33468 0 0 1 -0.39353,-0.12027q-1.21595,-0.38797 -3.03988,-0.87294q-1.82393,-0.48497 -4.47691,-0.87294a30.68838,26.92737 0 0 0 -2.6574,-0.2774q-1.39945,-0.09699 -2.96471,-0.10863a51.89677,45.53658 0 0 0 -0.45764,-0.00194a32.96995,28.92932 0 0 0 -9.74308,1.20854a26.52983,23.27847 0 0 0 -10.76227,5.58101q-6.57055,5.56744 -11.09831,15.17563a84.79376,74.40188 0 0 0 -1.89025,4.41709l0,62.75489z"/>
    <path stroke="null" vector-effect="non-scaling-stroke" id="svg_19" d="m1763.98305,98.68631l-46.4272,96.50867l-9.28544,0l-46.4272,-96.50867l8.29057,0a4.69357,4.11835 0 0 1 1.06561,0.10087a3.2079,2.81476 0 0 1 1.42156,0.62658a5.93384,5.20662 0 0 1 0.8578,0.81475a4.79306,4.20564 0 0 1 0.52396,0.78565l36.25744,76.14001a32.28238,28.32602 0 0 1 1.06783,2.44812a25.76489,22.60728 0 0 1 0.59029,1.8196l1.10541,4.07373q0.5527,-2.03687 1.16068,-4.12223a36.30386,31.85465 0 0 1 1.35965,-3.68576a40.38282,35.43372 0 0 1 0.24319,-0.53347l36.47852,-76.14001a5.46957,4.79925 0 0 1 0.69641,-1.01067a4.54766,3.99032 0 0 1 0.79589,-0.68671a3.48204,3.0553 0 0 1 1.76202,-0.60524a4.51449,3.96122 0 0 1 0.50407,-0.02522l7.95895,0z"/>
    <path stroke="null" vector-effect="non-scaling-stroke" id="svg_20" d="m1864.35424,143.10939l-79.47895,0l0,1.84288q0,10.30654 2.58666,18.25614a54.16949,47.53076 0 0 0 0.28741,0.8516a51.207,44.93133 0 0 0 3.4732,7.5655a39.36806,34.54332 0 0 0 4.70683,6.25609q5.30597,5.57713 12.82275,8.38995q7.51679,2.81282 16.80223,2.81282a63.57432,55.78298 0 0 0 6.60151,-0.28516q4.25362,-0.38991 7.76882,-1.31523q6.07975,-1.6004 10.22504,-3.58876a84.74291,74.35727 0 0 0 2.64635,-1.32105q1.16731,-0.60912 2.15113,-1.17556a35.33773,31.00693 0 0 0 1.77971,-1.09215a21.86058,19.18146 0 0 1 1.0015,-0.6227q1.48346,-0.86712 2.3302,-0.96412a1.57631,1.38313 0 0 1 0.20561,-0.01358q1.43703,0 2.21082,0.96994l2.87407,3.1038a25.92186,22.74501 0 0 1 -3.30296,2.98352a35.58092,31.22031 0 0 1 -3.71639,2.44812a48.35725,42.43084 0 0 1 -7.10999,3.37344a55.99121,49.12922 0 0 1 -2.61761,0.94278a69.01735,60.55895 0 0 1 -9.03562,2.39768a78.8754,69.20884 0 0 1 -2.46064,0.46363q-6.13502,1.06693 -12.32532,1.06693a56.27419,49.37752 0 0 1 -12.68789,-1.21242a47.79791,41.94005 0 0 1 -7.87273,-2.23085q-9.28544,-3.44327 -15.9179,-10.03884a48.85026,42.86343 0 0 1 -7.6826,-10.46561a61.04956,53.56765 0 0 1 -2.54244,-5.68383a68.94219,60.49299 0 0 1 -2.80332,-10.93118a93.90455,82.3961 0 0 1 -0.78926,-10.94088a72.6431,63.74034 0 0 1 1.31765,-12.34729a61.54479,54.00218 0 0 1 2.05385,-6.80895q3.3715,-8.77792 9.7276,-15.13101q6.35611,-6.35308 15.58628,-9.94185a47.37786,41.57147 0 0 1 13.18533,-3.16393a60.44822,53.04 0 0 1 7.76219,-0.42483a47.21647,41.42986 0 0 1 12.11529,1.33075a42.16032,36.99338 0 0 1 5.07383,1.48206q7.90368,2.81282 13.70708,8.19596a40.87805,35.86825 0 0 1 7.02819,9.01653a50.22097,44.06615 0 0 1 2.03616,4.2231a52.51138,46.07586 0 0 1 2.6154,9.43166a71.14416,62.42511 0 0 1 0.64556,8.60916a12.90455,11.32304 0 0 1 -0.04422,0.968q-0.13265,1.35791 -0.6743,1.94181a2.24177,1.96703 0 0 1 -1.08993,0.6324q-0.38026,0.10669 -0.84453,0.13385a4.95666,4.34919 0 0 1 -0.33162,0.0097zm-79.03679,-5.91661l72.51487,0q0,-7.75949 -2.4319,-13.91859a36.98701,32.45407 0 0 0 -3.36487,-6.32981a30.82545,27.04765 0 0 0 -3.48867,-4.09701q-4.42164,-4.26772 -10.61193,-6.54707a33.5315,29.42205 0 0 0 -9.91995,-2.12804a40.74319,35.74992 0 0 0 -3.78713,-0.15131a46.86716,41.12336 0 0 0 -8.30826,0.61882a36.67086,32.17667 0 0 0 -6.94639,1.70903q-6.743,2.32785 -11.66207,6.69256a38.10126,33.43177 0 0 0 -6.96408,8.60916a44.40873,38.96623 0 0 0 -0.99487,1.86616q-3.03988,6.1106 -4.03475,13.6761z"/>
   </g>
  </g>
 </g>

</svg>