<?xml version="1.0" encoding="utf-8"?>

<!DOCTYPE svg PUBLIC "-//W3C//DTD SVG 1.1//EN" "http://www.w3.org/Graphics/SVG/1.1/DTD/svg11.dtd">
<!-- Uploaded to: SVG Repo, www.svgrepo.com, Generator: SVG Repo Mixer Tools -->
<svg height="800px" width="800px" version="1.1" id="_x32_" xmlns="http://www.w3.org/2000/svg" xmlns:xlink="http://www.w3.org/1999/xlink"
	 viewBox="0 0 512 512"  xml:space="preserve">
<style type="text/css">
	.st0{fill:#000000;}
</style>
<g>
	<path class="st0" d="M265.233,126.422c0.008,0.008,0.008,0.008,0.008,0.008c0.009,0.009,0.009,0.009,0.009,0.009L265.233,126.422z"
		/>
	<path class="st0" d="M82.835,32.052c0.004,0,0.004,0,0.004,0c0.004-0.009,0.009-0.009,0.009-0.009L82.835,32.052z"/>
	<path class="st0" d="M508.243,445.28l-0.273-2.236L352.284,106.197c-7.885-17.068-18.17-32.512-30.271-45.894h0.014
		c-11.638-12.888-24.918-23.849-39.3-32.76l0.004-0.008c-0.066-0.044-0.098-0.062-0.159-0.098c-0.009-0.009-0.018-0.017-0.026-0.017
		c-0.72-0.451-1.216-0.743-1.419-0.866l-0.08-0.054l-0.07-0.044C252.543,9.272,219.789,0,186.168,0h-0.146
		c-1.817,0.017-3.748,0.035-5.794,0.097h-0.009c-23.81,0.751-47.92,6.268-70.707,16.812l-0.279,0.133l0.318-0.141
		c-9.464,4.34-18.382,9.467-26.709,15.151c-7.615,5.171-14.744,10.89-21.352,17.104C47.635,62.08,36.043,76.912,26.947,93.026
		c-2.974,5.295-5.715,10.749-8.15,16.362C8.685,132.415,3.314,157.458,3.314,183.03c0,5.737,0.274,11.509,0.823,17.272
		c0.521,5.516,1.299,11.075,2.386,16.644c2.736,14.497,7.297,28.861,13.697,42.722l20.835,45.09
		c4.822,10.422,12.463,18.81,21.554,24.504c9.096,5.693,19.655,8.778,30.5,8.778c8.049,0,16.274-1.716,24.018-5.304
		c10.426-4.808,18.81-12.446,24.503-21.533c5.702-9.095,8.778-19.65,8.782-30.496c0-8.053-1.714-16.274-5.308-24.026l-20.852-45.162
		l0.004,0.009c-0.796-1.706-1.53-3.491-2.192-5.303l-0.062-0.168c-1.998-5.507-3.217-11.066-3.761-16.653v0.017
		c-0.207-2.139-0.31-4.278-0.31-6.426c0-4.764,0.504-9.511,1.507-14.161l0.004-0.017c0.725-3.43,1.724-6.824,2.962-10.095
		c3.606-9.529,9.294-18.174,16.707-25.192l0.049-0.052l0.499-0.486c5.166-4.809,11.058-8.831,17.957-12.03l0.009-0.009
		c4.844-2.236,9.742-3.819,14.714-4.888c1.692-0.344,3.364-0.636,5.1-0.866l-0.182,0.018l0.12-0.018
		c2.891-0.388,5.808-0.574,8.738-0.574c3.677,0,7.354,0.309,10.996,0.892l0.022,0.009c5.3,0.848,10.44,2.316,15.324,4.376
		l0.084,0.035l0.026,0.009c7.2,2.97,13.874,7.195,19.655,12.463l0.044,0.026c3.5,3.183,6.683,6.746,9.48,10.706l0.049,0.062
		c2.422,3.376,4.592,7.08,6.436,11.084l0.004,0.018l155.65,336.775l1.52,1.662c11.341,12.34,27.279,19.253,43.835,19.261
		c8.362,0,16.892-1.785,24.936-5.507c10.82-4.994,19.508-12.923,25.414-22.355c5.896-9.441,9.087-20.392,9.096-31.636
		C508.686,450.098,508.535,447.684,508.243,445.28z M33.289,201.434c-0.15-1.272-0.336-2.554-0.455-3.854
		c-0.469-4.871-0.69-9.732-0.69-14.55c0-21.525,4.517-42.633,13.052-62.063l0.066-0.15l-0.04,0.098
		c1.335-3.085,2.833-6.117,4.402-9.131c11.536-1.6,22.886-1.927,33.793-0.972c10.935,0.928,21.384,3.217,31.248,6.505
		c-8.38,9.131-14.881,19.739-19.218,31.195c-1.768,4.65-3.164,9.432-4.207,14.293c-0.455,2.139-0.72,4.305-1.03,6.47
		c-10.037,2.865-19.986,6.868-29.559,12.269C51.083,186.911,41.899,193.594,33.289,201.434z M118.94,268.782
		c1.812,3.916,2.643,7.929,2.646,11.924c0,5.357-1.542,10.652-4.375,15.178c-2.85,4.526-6.926,8.256-12.176,10.686
		c-3.911,1.803-7.933,2.634-11.925,2.634c-5.365,0-10.664-1.529-15.19-4.375c-4.526-2.846-8.26-6.921-10.695-12.163l-8.049-17.414
		l18.934-26.934l10.246-14.542l5.122-7.284c1.224-1.688,2.541-3.164,3.89-4.632c0.278,0.619,0.482,1.256,0.773,1.874L118.94,268.782
		z M201.916,87.104l0.318,0.044l-0.468-0.08h-0.036c-5.13-0.84-10.35-1.264-15.614-1.264c-4.168,0-8.372,0.256-12.579,0.822
		l-0.057,0.009c-2.312,0.318-4.619,0.707-6.957,1.184l-0.08,0.018l-0.052,0.017c-2.109,0.451-4.225,0.99-6.334,1.582
		c-13.316-15.963-31.128-29.479-52.351-38.964c4.494-2.669,9.083-5.179,13.886-7.39l0.062-0.026
		c19.208-8.875,39.494-13.507,59.472-14.143h-0.014c1.613-0.052,3.324-0.07,5.11-0.089c3.394,0,6.775,0.124,10.143,0.354
		c6.104,9.918,10.952,20.181,14.47,30.576c3.54,10.405,5.746,20.906,6.704,31.274C212.457,89.287,207.224,87.97,201.916,87.104z
		 M292.67,181.713L274.408,142.2v0.009c-2.612-5.666-5.705-10.934-9.162-15.77c-1.264-1.777-2.674-3.421-4.044-5.101
		c4.684-9.325,8.451-19.367,10.907-30.106c2.48-10.669,3.753-21.976,3.784-33.617c8.928,6.364,17.237,13.701,24.725,22.011
		l0.008,0.008c10.157,11.227,18.833,24.238,25.493,38.673l4.42,9.556l-18.943,26.933L292.67,181.713z M321.933,245.039
		l37.873-53.842l31.65,68.488l-37.864,53.85L321.933,245.039z M414.518,445.359l-31.654-68.497l37.868-53.832l31.654,68.47
		L414.518,445.359z"/>
	<path class="st0" d="M265.281,126.475c-0.013-0.008-0.017-0.017-0.026-0.026l0.071,0.106L265.281,126.475z"/>
</g>
</svg>
